<?xml version="1.0" encoding="utf-8"?>
<!-- Generator: Adobe Illustrator 17.0.0, SVG Export Plug-In . SVG Version: 6.00 Build 0)  -->
<!DOCTYPE svg PUBLIC "-//W3C//DTD SVG 1.1//EN" "http://www.w3.org/Graphics/SVG/1.1/DTD/svg11.dtd">
<svg version="1.1" id="Layer_1" xmlns="http://www.w3.org/2000/svg" xmlns:xlink="http://www.w3.org/1999/xlink" x="0px" y="0px"
	 width="612px" height="792px" viewBox="0 0 612 792" enable-background="new 0 0 612 792" xml:space="preserve">
<g>
	<path fill="#339ED5" d="M145.802,460.921c0,1.753-0.412,3.414-1.238,4.978c-0.825,1.567-1.986,2.812-3.482,3.741
		s-3.191,1.53-5.082,1.804c-1.204,0.173-3.01,0.259-5.417,0.259h-8.977v-38.177h8.926c1.822,0,3.421,0.12,4.797,0.36
		c1.376,0.242,2.666,0.758,3.869,1.549c1.41,0.929,2.519,2.106,3.328,3.533c0.808,1.428,1.212,2.983,1.212,4.668
		c0,1.618-0.37,3.063-1.11,4.334c-0.739,1.273-1.798,2.391-3.173,3.354c1.995,0.826,3.552,2.082,4.669,3.767
		C145.243,456.777,145.802,458.721,145.802,460.921z M139.92,443.38c0-1.066-0.276-2.063-0.828-2.992
		c-0.552-0.929-1.294-1.684-2.226-2.271c-0.726-0.447-1.622-0.747-2.692-0.903c-1.071-0.154-2.21-0.231-3.417-0.231
		c-0.381,0-0.674,0-0.881,0h-4.453v12.897h4.141c0.414,0,0.724,0,0.932,0c1.726,0,3.038-0.094,3.936-0.283
		c0.897-0.188,1.691-0.473,2.381-0.852c0.932-0.482,1.682-1.228,2.253-2.245C139.636,445.486,139.92,444.446,139.92,443.38z
		 M141.881,460.972c0-1.65-0.412-3.069-1.238-4.257c-0.825-1.186-1.995-2.055-3.508-2.605c-1.032-0.345-2.305-0.559-3.818-0.644
		c-1.514-0.086-2.476-0.131-2.889-0.131c-0.447,0-0.774,0-0.98,0h-4.024v14.911h4.695c0.446,0,0.774,0,0.98,0
		c1.926,0,3.405-0.094,4.437-0.285c1.032-0.188,1.909-0.471,2.631-0.85c1.1-0.584,1.995-1.445,2.683-2.581
		C141.537,463.397,141.881,462.211,141.881,460.972z"/>
	<path fill="#339ED5" d="M178.871,458.961h-25.588c0,2.6,1.1,4.867,3.301,6.799c2.201,1.933,4.643,2.9,7.326,2.9
		c2.133,0,4.145-0.554,6.036-1.663c1.891-1.109,3.267-2.6,4.127-4.477h3.972c-0.997,2.84-2.785,5.184-5.365,7.031
		c-2.579,1.849-5.383,2.772-8.409,2.772c-4.094,0-7.584-1.423-10.473-4.274c-2.889-2.849-4.334-6.333-4.334-10.455
		c0-4.086,1.426-7.57,4.281-10.455c2.855-2.883,6.329-4.325,10.422-4.325c4.3,0,7.825,1.479,10.577,4.437
		C177.496,450.207,178.871,454.111,178.871,458.961z M175.054,455.504c-0.483-2.525-1.764-4.661-3.844-6.408
		c-2.081-1.746-4.411-2.622-6.991-2.622c-2.683,0-5.055,0.85-7.119,2.543c-2.063,1.695-3.337,3.859-3.817,6.487H175.054z"/>
	<path fill="#339ED5" d="M195.948,446.631c-1.858,0-3.56,0.653-5.108,1.96c-1.205,1.032-1.986,2.063-2.348,3.095
		c-0.361,1.032-0.541,2.442-0.541,4.231v15.786h-3.818v-28.272h3.612v4.126c0.722-1.616,1.797-2.81,3.224-3.585
		c1.428-0.773,3.087-1.16,4.979-1.16V446.631z"/>
	<path fill="#339ED5" d="M228.449,471.703h-3.663v-5.314c-1.032,1.909-2.536,3.377-4.514,4.398
		c-1.979,1.023-4.136,1.535-6.475,1.535c-2.201,0-4.385-0.499-6.552-1.494c-2.166-0.995-4.126-2.489-5.881-4.479
		c-0.619-0.687-1.204-1.785-1.754-3.296c-0.688-1.888-1.032-3.777-1.032-5.665s0.352-3.666,1.057-5.331
		c0.705-1.665,1.737-3.21,3.096-4.636c1.358-1.423,2.941-2.549,4.746-3.371c1.806-0.824,3.878-1.237,6.217-1.237
		c2.373,0,4.548,0.507,6.527,1.522c1.978,1.014,3.464,2.519,4.462,4.514l0.103-5.417h3.663v26.414V471.703z M224.786,457.721
		c0-3.129-1.057-5.785-3.173-7.97c-2.115-2.183-4.754-3.277-7.919-3.277c-3.096,0-5.753,1.094-7.971,3.277
		c-2.218,2.185-3.327,4.824-3.327,7.919c0,3.063,1.134,5.659,3.405,7.79c2.27,2.134,4.934,3.2,7.996,3.2
		c2.924,0,5.486-1.083,7.688-3.251C223.685,463.243,224.786,460.681,224.786,457.721z"/>
	<path fill="#339ED5" d="M248.57,446.939h-6.552v24.764h-3.817v-24.764h-5.881v-3.508h5.881v-9.905h3.817v9.905h6.552V446.939z"/>
	<path fill="#339ED5" d="M277.358,471.703h-3.663v-4.385c-0.896,1.701-2.151,2.962-3.767,3.78c-1.617,0.815-3.475,1.224-5.572,1.224
		c-1.926,0-3.663-0.377-5.21-1.132c-1.548-0.755-3.113-2.061-4.695-3.914c-0.792-0.824-1.325-1.965-1.6-3.424
		c-0.276-1.46-0.413-3.287-0.413-5.485v-14.934h3.818v14.93c0,1.785,0.094,3.082,0.285,3.889c0.189,0.807,0.508,1.588,0.958,2.341
		c1.586,2.712,4.052,4.069,7.399,4.069c2.898,0,5.209-1.149,6.934-3.45c0.655-0.927,1.103-1.939,1.345-3.037
		s0.363-2.369,0.363-3.812v-14.93h3.818V471.703z"/>
	<path fill="#339ED5" d="M308.93,471.703h-3.818v-14.889c0-1.86-0.139-3.255-0.413-4.186c-0.276-0.931-0.691-1.776-1.241-2.534
		c-1.727-2.412-4.158-3.619-7.297-3.619c-1.38,0-2.683,0.304-3.907,0.905c-1.225,0.604-2.233,1.455-3.026,2.56
		c-0.657,0.86-1.07,1.843-1.242,2.945c-0.172,1.104-0.259,2.414-0.259,3.929v14.889h-3.818v-28.272h3.612v4.126
		c2.201-3.163,5.125-4.745,8.771-4.745c1.96,0,3.801,0.404,5.52,1.211c1.721,0.809,3.217,1.986,4.49,3.533
		c0.997,1.239,1.684,2.615,2.063,4.128c0.377,1.513,0.567,3.234,0.567,5.16V471.703z"/>
	<path fill="#339ED5" d="M343.703,467.68c0,2.545-0.156,4.402-0.464,5.571c-0.447,1.721-1.368,3.328-2.761,4.824
		c-1.393,1.496-3.103,2.647-5.132,3.456c-2.031,0.809-4.077,1.214-6.14,1.214c-3.165,0-6.072-0.955-8.719-2.864
		c-2.65-1.909-4.351-4.411-5.107-7.508h3.713c1.136,2.168,2.562,3.827,4.283,4.98c1.719,1.151,3.767,1.727,6.14,1.727
		c1.856,0,3.636-0.43,5.338-1.291c1.704-0.858,3.02-2.063,3.949-3.611c0.548-0.997,0.892-1.943,1.032-2.838
		c0.137-0.892,0.205-2.115,0.205-3.662v-1.547c-0.86,1.978-2.373,3.529-4.539,4.655c-1.995,1.023-4.18,1.535-6.553,1.535
		c-1.892,0-3.705-0.36-5.443-1.081c-1.736-0.721-3.311-1.734-4.719-3.039c-2.96-2.814-4.439-6.335-4.439-10.558
		c0-1.853,0.31-3.655,0.929-5.406c0.516-1.477,1.1-2.577,1.755-3.298c1.755-2.23,3.662-3.844,5.727-4.841
		c1.787-0.856,3.782-1.286,5.984-1.286c2.374,0,4.574,0.516,6.605,1.547c2.029,1.032,3.559,2.562,4.591,4.591l0.103-5.52h3.664
		V467.68z M340.039,457.567c0-3.163-1.094-5.804-3.283-7.919c-2.189-2.117-4.888-3.174-8.094-3.174c-2.93,0-5.413,1.068-7.446,3.2
		c-2.035,2.132-3.052,4.661-3.052,7.583c0,3.2,1.017,5.901,3.052,8.101c2.033,2.202,4.636,3.302,7.81,3.302
		c2.859,0,5.41-1.117,7.651-3.354C338.92,463.07,340.039,460.491,340.039,457.567z"/>
	<path fill="#2677A0" d="M368.568,440.388h-7.118v31.316h-7.069v-31.316h-7.016v-6.862h21.203V440.388z"/>
	<path fill="#2677A0" d="M400.089,457.214c0,0.516-0.051,1.1-0.154,1.751s-0.171,1.149-0.205,1.492h-22.237
		c0.516,1.635,1.462,2.947,2.838,3.936c1.374,0.989,2.941,1.481,4.696,1.481c2.784,0,4.916-0.807,6.397-2.425h7.634
		c-0.895,2.566-2.656,4.73-5.288,6.491c-2.63,1.759-5.46,2.641-8.486,2.641c-4.126,0-7.671-1.457-10.628-4.37
		s-4.437-6.444-4.437-10.592c0-4.25,1.462-7.885,4.385-10.9c2.924-3.018,6.517-4.527,10.782-4.527c4.058,0,7.525,1.494,10.397,4.477
		C398.653,449.653,400.089,453.169,400.089,457.214z M393.125,454.368c-0.55-1.667-1.53-2.988-2.941-3.959
		c-1.41-0.972-3.026-1.457-4.85-1.457c-1.721,0-3.345,0.503-4.875,1.509c-1.53,1.004-2.553,2.307-3.069,3.908H393.125z"/>
	<path fill="#2677A0" d="M433.573,471.703h-6.346v-3.87c-1.066,1.464-2.502,2.62-4.308,3.471c-1.804,0.85-3.636,1.276-5.494,1.276
		c-2.166,0-4.146-0.419-5.933-1.261c-1.789-0.839-3.319-2.012-4.593-3.523c-2.371-2.844-3.559-6.305-3.559-10.384
		c0-2.057,0.285-3.908,0.852-5.554c0.567-1.644,1.505-3.204,2.812-4.678c2.819-3.324,6.363-4.989,10.626-4.989
		c4.06,0,7.257,1.652,9.597,4.955v-4.077h6.346V471.703z M427.022,457.362c0-2.427-0.766-4.437-2.296-6.027
		c-1.53-1.588-3.516-2.384-5.958-2.384c-2.547,0-4.61,0.822-6.192,2.463s-2.374,3.726-2.374,6.254c0,2.326,0.826,4.274,2.476,5.847
		c1.652,1.573,3.647,2.359,5.986,2.359c2.476,0,4.488-0.803,6.035-2.41S427.022,459.823,427.022,457.362z"/>
	<path fill="#2677A0" d="M481.605,471.703h-6.862v-15.219c0-1.342-0.053-2.416-0.156-3.225c-0.103-0.807-0.379-1.547-0.824-2.217
		c-0.447-0.672-1.077-1.196-1.883-1.575c-0.809-0.377-1.627-0.567-2.451-0.567c-2.134,0-3.715,0.826-4.747,2.476
		c-0.413,0.655-0.696,1.496-0.852,2.528c-0.154,1.034-0.231,2.065-0.231,3.097c-0.034,0.482-0.034,0.843,0,1.083v13.62h-6.862
		v-15.219c0-0.31,0-0.533,0-0.672c0-1.066-0.062-1.915-0.182-2.553c-0.12-0.636-0.422-1.316-0.903-2.037
		c-0.482-0.721-1.134-1.291-1.96-1.701c-0.824-0.413-1.667-0.621-2.528-0.621c-2.408,0-4.024,1.014-4.85,3.043
		c-0.482,1.205-0.721,3.251-0.721,6.14v13.62h-6.861v-28.634h6.294v2.632c0.616-1.154,1.646-2.025,3.088-2.62
		c1.44-0.593,2.917-0.89,4.428-0.89c3.227,0,5.768,1.188,7.621,3.561l0.67,0.929l0.721-0.929c0.995-1.169,2.241-2.055,3.737-2.658
		c1.494-0.601,3.05-0.903,4.664-0.903c1.821,0,3.454,0.276,4.897,0.824c1.443,0.55,2.731,1.468,3.865,2.757
		c1.132,1.288,1.924,2.825,2.371,4.61c0.342,1.408,0.516,3.176,0.516,5.303V471.703z"/>
</g>
<g>
	<path fill="#2677A0" d="M341.855,319.418l39.838,61.775L369.8,357.846v-45.426c0-3.429-0.676-6.694-1.869-9.698L341.855,319.418z"
		/>
	<path fill="#339ED5" d="M255.723,379.634c-5.608-8.759-3.029-20.513,5.729-26.121l97.442-62.385
		c-4.33-3.136-9.637-5.006-15.392-5.006h-77.833c-14.525,0-26.299,11.774-26.299,26.299v77.833
		c0,14.524,11.774,26.299,26.299,26.299h13.691L255.723,379.634z"/>
	<path fill="#2677A0" d="M327.132,328.844l-48.276,30.908l0.032,0.05l-10.713,6.859l31.943,49.892h36.934
		c0.798-1.195,1.423-2.394,1.844-3.598c1.573-4.497,0.747-9.265-2.478-14.303c-3.224-5.037-7.183-7.646-11.871-7.831
		c-4.688-0.181-10.664,2.052-17.928,6.703l-7.911,5.065l-8.092-12.638l8.078-5.172c5.818-3.725,9.59-7.303,11.314-10.734
		c1.723-3.428,1.791-7.146,0.207-11.154c-0.574-1.469-1.278-2.856-2.112-4.159c-2.005-3.132-4.556-5.096-7.64-5.916l15.689-10.045
		c0.2,0.172,0.408,0.321,0.606,0.5c1.013,0.82,2.025,1.826,3.034,3.017c1.007,1.192,1.929,2.439,2.763,3.742
		c2.503,3.909,3.983,8.136,4.443,12.678c0.459,4.545-0.136,8.875-1.786,12.992c5.15,0.009,10.047,1.346,14.689,4.006
		c4.643,2.661,8.411,6.251,11.302,10.766c0.39,0.609,0.799,1.297,1.228,2.062c0.428,0.768,0.93,1.884,1.504,3.353
		c2.475,6.174,3.161,12.011,2.069,17.508c6.931-3.753,11.962-10.536,13.373-18.567L327.132,328.844z"/>
</g>
<g opacity="0.1">
	<path d="M312.007,340.931c-0.209-0.165-0.426-0.301-0.637-0.46l-15.006,11.039c3.131,0.619,5.803,2.414,8.007,5.409
		c0.917,1.246,1.709,2.584,2.376,4.013c1.84,3.898,2.013,7.612,0.516,11.144c-1.498,3.536-5.031,7.35-10.596,11.444l-7.727,5.684
		l8.892,12.088l0.031-0.023l-7.247-11.32l8.078-5.172c5.818-3.725,9.59-7.303,11.314-10.734c1.723-3.428,1.791-7.146,0.207-11.154
		c-0.574-1.469-1.278-2.856-2.112-4.159c-2.005-3.132-4.556-5.096-7.64-5.916l14.525-9.299
		C313.987,342.502,312.992,341.628,312.007,340.931z"/>
	<polygon points="365.141,355.789 369.8,363.066 369.8,362.123 	"/>
	<polygon points="292.958,405.369 300.118,416.553 301.184,416.553 	"/>
	<path d="M339.05,404.274c0.129,1.601-0.005,3.189-0.443,4.763c-0.69,2.473-2.169,4.979-4.384,7.516h2.829
		c0.798-1.195,1.423-2.394,1.844-3.598C339.872,410.166,339.92,407.272,339.05,404.274z"/>
	<polygon points="327.132,328.844 324.742,330.374 350.723,365.692 	"/>
	<path d="M350.793,387.782c-0.478-0.735-0.93-1.395-1.359-1.978c-3.177-4.319-7.169-7.657-11.975-10.012
		c-3.657-1.792-7.413-2.804-11.264-3.044c-0.272,0.995-0.592,1.98-0.982,2.952c5.15,0.009,10.047,1.346,14.689,4.006
		c4.643,2.661,8.411,6.251,11.302,10.766c0.39,0.609,0.799,1.297,1.228,2.062c0.428,0.768,0.93,1.884,1.504,3.353
		c0.745,1.859,1.307,3.684,1.729,5.482c-0.442-3.371-1.469-6.814-3.154-10.338C351.843,389.602,351.27,388.52,350.793,387.782z"/>
	<path d="M253.452,381.168l25.088,34.105l-22.817-35.639c-5.608-8.759-3.029-20.513,5.729-26.121l97.442-62.385
		c-2.72-1.97-5.825-3.425-9.189-4.24l-92.226,67.843C249.101,360.894,247.289,372.791,253.452,381.168z"/>
</g>
<g>
	<g>
		<path fill="#999999" d="M128.211,490.76h-3.538v-1.278h8.61v1.278h-3.555v10.352h-1.517V490.76z"/>
		<path fill="#999999" d="M138.073,497.212c0.035,2.035,1.329,2.883,2.848,2.883c1.087,0,1.76-0.19,2.313-0.432l0.276,1.087
			c-0.535,0.242-1.467,0.535-2.795,0.535c-2.554,0-4.107-1.708-4.107-4.21c0-2.521,1.501-4.505,3.934-4.505
			c2.727,0,3.434,2.399,3.434,3.936c0,0.31-0.017,0.533-0.051,0.706H138.073z M142.508,496.125c0.018-0.965-0.396-2.468-2.088-2.468
			c-1.553,0-2.209,1.415-2.33,2.468H142.508z"/>
		<path fill="#999999" d="M155.652,499.111c0,0.726,0.034,1.432,0.121,2.001h-1.363l-0.138-1.053h-0.052
			c-0.448,0.657-1.363,1.243-2.553,1.243c-1.691,0-2.554-1.19-2.554-2.399c0-2.018,1.795-3.123,5.022-3.105v-0.173
			c0-0.689-0.19-1.95-1.898-1.933c-0.794,0-1.605,0.225-2.192,0.623l-0.345-1.019c0.69-0.432,1.708-0.726,2.761-0.726
			c2.57,0,3.192,1.744,3.192,3.418V499.111z M154.168,496.851c-1.657-0.034-3.538,0.259-3.538,1.881
			c0,0.999,0.656,1.449,1.416,1.449c1.104,0,1.812-0.691,2.054-1.398c0.051-0.156,0.068-0.327,0.068-0.484V496.851z"/>
		<path fill="#999999" d="M161.995,495.021c0-0.88-0.034-1.571-0.068-2.26h1.328l0.07,1.346h0.051
			c0.465-0.794,1.242-1.537,2.64-1.537c1.121,0,1.985,0.691,2.347,1.674h0.035c0.258-0.482,0.604-0.828,0.948-1.087
			c0.501-0.379,1.036-0.586,1.83-0.586c1.121,0,2.761,0.726,2.761,3.623v4.918h-1.484v-4.728c0-1.622-0.605-2.57-1.812-2.57
			c-0.881,0-1.536,0.638-1.812,1.363c-0.07,0.225-0.121,0.501-0.121,0.758v5.177h-1.484v-5.021c0-1.329-0.586-2.277-1.743-2.277
			c-0.931,0-1.639,0.76-1.88,1.517c-0.087,0.225-0.121,0.484-0.121,0.743v5.038h-1.484V495.021z"/>
		<path fill="#999999" d="M181.165,497.212c0.035,2.035,1.329,2.883,2.848,2.883c1.087,0,1.76-0.19,2.312-0.432l0.276,1.087
			c-0.535,0.242-1.467,0.535-2.796,0.535c-2.553,0-4.106-1.708-4.106-4.21c0-2.521,1.501-4.505,3.934-4.505
			c2.727,0,3.434,2.399,3.434,3.936c0,0.31-0.017,0.533-0.051,0.706H181.165z M185.601,496.125c0.017-0.965-0.397-2.468-2.089-2.468
			c-1.553,0-2.209,1.415-2.329,2.468H185.601z"/>
		<path fill="#999999" d="M192.858,495.021c0-0.88-0.017-1.571-0.068-2.26h1.345l0.087,1.363h0.034
			c0.414-0.777,1.38-1.554,2.761-1.554c1.157,0,2.951,0.691,2.951,3.555v4.987h-1.518v-4.813c0-1.346-0.501-2.485-1.933-2.485
			c-0.983,0-1.76,0.706-2.036,1.552c-0.07,0.19-0.104,0.467-0.104,0.708v5.038h-1.518V495.021z"/>
		<path fill="#999999" d="M208.107,490.76v2.001h2.174v1.156h-2.174v4.486c0,1.036,0.293,1.622,1.14,1.622
			c0.414,0,0.655-0.034,0.88-0.103l0.07,1.156c-0.294,0.103-0.76,0.208-1.346,0.208c-0.707,0-1.278-0.242-1.639-0.638
			c-0.414-0.467-0.586-1.209-0.586-2.192v-4.539h-1.295v-1.156h1.295v-1.537L208.107,490.76z"/>
		<path fill="#999999" d="M216.657,492.761l1.123,4.227c0.224,0.933,0.448,1.813,0.604,2.675h0.051
			c0.19-0.845,0.467-1.742,0.743-2.658l1.363-4.244h1.277l1.294,4.176c0.311,0.984,0.552,1.881,0.743,2.727h0.051
			c0.138-0.845,0.363-1.725,0.639-2.71l1.19-4.193h1.501l-2.691,8.351h-1.38l-1.278-3.985c-0.293-0.95-0.535-1.779-0.742-2.761
			h-0.034c-0.208,0.999-0.467,1.881-0.76,2.778l-1.345,3.968h-1.38l-2.52-8.351H216.657z"/>
		<path fill="#999999" d="M233.393,491.346c-0.552,0-0.914-0.432-0.914-0.933c0-0.533,0.38-0.948,0.949-0.948
			c0.552,0,0.931,0.415,0.931,0.948c0,0.501-0.362,0.933-0.948,0.933H233.393z M232.668,501.112v-8.351h1.518v8.351H232.668z"/>
		<path fill="#999999" d="M246.567,500.802c-0.397,0.19-1.277,0.484-2.398,0.484c-2.519,0-4.158-1.708-4.158-4.263
			c0-2.57,1.76-4.452,4.486-4.452c0.898,0,1.692,0.225,2.105,0.449l-0.345,1.156c-0.363-0.19-0.932-0.396-1.76-0.396
			c-1.915,0-2.95,1.432-2.95,3.157c0,1.933,1.242,3.123,2.899,3.123c0.863,0,1.432-0.205,1.863-0.396L246.567,500.802z"/>
		<path fill="#999999" d="M253.773,496.592h0.034c0.208-0.293,0.484-0.657,0.726-0.95l2.468-2.881h1.812l-3.227,3.433l3.676,4.918
			h-1.847l-2.864-4.002l-0.777,0.862v3.14h-1.518v-12.251h1.518V496.592z"/>
		<path fill="#999999" d="M264.551,488.861h1.518v12.251h-1.518V488.861z"/>
		<path fill="#999999" d="M279.52,498.818c0,0.88,0.017,1.639,0.068,2.294h-1.346l-0.086-1.363h-0.034
			c-0.38,0.674-1.278,1.554-2.761,1.554c-1.312,0-2.882-0.743-2.882-3.658v-4.884h1.518v4.608c0,1.586,0.5,2.673,1.863,2.673
			c1.019,0,1.726-0.706,2.002-1.398c0.086-0.205,0.138-0.482,0.138-0.777v-5.107h1.518V498.818z"/>
		<path fill="#999999" d="M285.95,495.021c0-0.88-0.017-1.571-0.068-2.26h1.345l0.087,1.363h0.034
			c0.414-0.777,1.38-1.554,2.761-1.554c1.157,0,2.951,0.691,2.951,3.555v4.987h-1.518v-4.813c0-1.346-0.501-2.485-1.933-2.485
			c-0.984,0-1.76,0.706-2.036,1.552c-0.07,0.19-0.104,0.467-0.104,0.708v5.038h-1.518V495.021z"/>
		<path fill="#999999" d="M306.583,499.888c0,1.933-0.396,3.088-1.19,3.829c-0.828,0.743-2.001,1.002-3.054,1.002
			c-1.001,0-2.105-0.242-2.778-0.689l0.38-1.175c0.552,0.364,1.415,0.674,2.449,0.674c1.554,0,2.692-0.811,2.692-2.934v-0.914
			h-0.034c-0.449,0.777-1.363,1.398-2.658,1.398c-2.07,0-3.554-1.759-3.554-4.09c0-2.829,1.846-4.417,3.779-4.417
			c1.449,0,2.226,0.743,2.605,1.451h0.036l0.051-1.261h1.346c-0.051,0.586-0.071,1.278-0.071,2.277V499.888z M305.065,496.04
			c0-0.242-0.017-0.467-0.086-0.674c-0.276-0.897-1.002-1.62-2.123-1.62c-1.45,0-2.485,1.224-2.485,3.174
			c0,1.622,0.845,3.003,2.468,3.003c0.948,0,1.793-0.586,2.106-1.571c0.086-0.242,0.12-0.535,0.12-0.811V496.04z"/>
		<path fill="#999999" d="M311.755,503.252c0.379-1.036,0.845-2.881,1.036-4.141l1.692-0.173c-0.415,1.468-1.174,3.382-1.658,4.193
			L311.755,503.252z"/>
		<path fill="#999999" d="M335.943,500.733c-0.535,0.276-1.657,0.552-3.071,0.552c-3.279,0-5.729-2.072-5.729-5.883
			c0-3.643,2.468-6.093,6.074-6.093c1.432,0,2.365,0.312,2.761,0.501l-0.379,1.243c-0.552-0.276-1.363-0.484-2.331-0.484
			c-2.724,0-4.537,1.742-4.537,4.779c0,2.849,1.639,4.659,4.452,4.659c0.931,0,1.864-0.188,2.468-0.484L335.943,500.733z"/>
		<path fill="#999999" d="M344.913,501.302c-2.243,0-4.004-1.657-4.004-4.298c0-2.795,1.847-4.435,4.141-4.435
			c2.399,0,4.021,1.744,4.021,4.28c0,3.105-2.157,4.452-4.141,4.452H344.913z M344.981,500.164c1.449,0,2.536-1.363,2.536-3.262
			c0-1.415-0.706-3.193-2.502-3.193c-1.776,0-2.553,1.656-2.553,3.245c0,1.83,1.036,3.21,2.502,3.21H344.981z"/>
		<path fill="#999999" d="M360.782,499.111c0,0.726,0.034,1.432,0.12,2.001h-1.363l-0.137-1.053h-0.051
			c-0.449,0.657-1.363,1.243-2.555,1.243c-1.691,0-2.553-1.19-2.553-2.399c0-2.018,1.796-3.123,5.021-3.105v-0.173
			c0-0.689-0.188-1.95-1.898-1.933c-0.792,0-1.603,0.225-2.189,0.623l-0.347-1.019c0.691-0.432,1.71-0.726,2.761-0.726
			c2.573,0,3.193,1.744,3.193,3.418V499.111z M359.299,496.851c-1.657-0.034-3.538,0.259-3.538,1.881
			c0,0.999,0.655,1.449,1.415,1.449c1.104,0,1.811-0.691,2.052-1.398c0.051-0.156,0.071-0.327,0.071-0.484V496.851z"/>
		<path fill="#999999" d="M373.08,500.802c-0.396,0.19-1.278,0.484-2.399,0.484c-2.519,0-4.158-1.708-4.158-4.263
			c0-2.57,1.761-4.452,4.488-4.452c0.897,0,1.691,0.225,2.104,0.449l-0.345,1.156c-0.362-0.19-0.931-0.396-1.759-0.396
			c-1.915,0-2.951,1.432-2.951,3.157c0,1.933,1.241,3.123,2.898,3.123c0.865,0,1.434-0.205,1.864-0.396L373.08,500.802z"/>
		<path fill="#999999" d="M378.768,488.861h1.517v5.211h0.034c0.242-0.432,0.621-0.828,1.087-1.07
			c0.449-0.276,0.984-0.432,1.554-0.432c1.121,0,2.915,0.691,2.915,3.572v4.97h-1.517v-4.813c0-1.346-0.501-2.468-1.933-2.468
			c-0.984,0-1.742,0.689-2.037,1.517c-0.086,0.208-0.103,0.432-0.103,0.726v5.038h-1.517V488.861z"/>
		<path fill="#999999" d="M392.979,491.346c-0.552,0-0.914-0.432-0.914-0.933c0-0.533,0.379-0.948,0.948-0.948
			c0.552,0,0.933,0.415,0.933,0.948c0,0.501-0.364,0.933-0.95,0.933H392.979z M392.256,501.112v-8.351h1.517v8.351H392.256z"/>
		<path fill="#999999" d="M400.201,495.021c0-0.88-0.019-1.571-0.071-2.26h1.346l0.088,1.363h0.034
			c0.413-0.777,1.38-1.554,2.761-1.554c1.156,0,2.949,0.691,2.949,3.555v4.987h-1.517v-4.813c0-1.346-0.501-2.485-1.933-2.485
			c-0.984,0-1.761,0.706-2.037,1.552c-0.068,0.19-0.103,0.467-0.103,0.708v5.038h-1.517V495.021z"/>
		<path fill="#999999" d="M420.832,499.888c0,1.933-0.396,3.088-1.19,3.829c-0.828,0.743-2.001,1.002-3.054,1.002
			c-1.002,0-2.106-0.242-2.778-0.689l0.379-1.175c0.552,0.364,1.415,0.674,2.451,0.674c1.554,0,2.692-0.811,2.692-2.934v-0.914
			h-0.034c-0.449,0.777-1.363,1.398-2.658,1.398c-2.07,0-3.555-1.759-3.555-4.09c0-2.829,1.847-4.417,3.78-4.417
			c1.449,0,2.226,0.743,2.605,1.451h0.036l0.051-1.261h1.346c-0.051,0.586-0.071,1.278-0.071,2.277V499.888z M419.315,496.04
			c0-0.242-0.017-0.467-0.086-0.674c-0.276-0.897-1.002-1.62-2.123-1.62c-1.449,0-2.485,1.224-2.485,3.174
			c0,1.622,0.845,3.003,2.468,3.003c0.948,0,1.793-0.586,2.106-1.571c0.086-0.242,0.12-0.535,0.12-0.811V496.04z"/>
		<path fill="#999999" d="M426.005,503.252c0.379-1.036,0.845-2.881,1.036-4.141l1.691-0.173c-0.415,1.468-1.173,3.382-1.657,4.193
			L426.005,503.252z"/>
		<path fill="#999999" d="M446.62,501.302c-3.088,0-5.229-2.382-5.229-5.901c0-3.694,2.279-6.11,5.385-6.11
			c3.191,0,5.246,2.433,5.246,5.886c0,3.985-2.433,6.125-5.385,6.125H446.62z M446.705,500.076c2.382,0,3.728-2.189,3.728-4.83
			c0-2.311-1.207-4.728-3.709-4.728s-3.745,2.329-3.745,4.848c0,2.451,1.346,4.711,3.709,4.711H446.705z"/>
		<path fill="#999999" d="M457.886,489.482h1.5v5.607h0.051c0.31-0.447,0.623-0.863,0.916-1.241l3.555-4.366h1.862l-4.21,4.935
			l4.539,6.695h-1.779l-3.814-5.71l-1.121,1.276v4.435h-1.5V489.482z"/>
		<path fill="#999999" d="M471.151,489.655c0.758-0.156,1.862-0.259,2.881-0.259c1.605,0,2.658,0.31,3.382,0.965
			c0.569,0.501,0.916,1.295,0.916,2.209c0,1.52-0.984,2.536-2.192,2.951v0.051c0.88,0.31,1.415,1.139,1.708,2.348
			c0.379,1.622,0.655,2.744,0.88,3.191h-1.552c-0.19-0.345-0.449-1.329-0.76-2.778c-0.345-1.605-0.984-2.209-2.348-2.26h-1.415
			v5.038h-1.5V489.655z M472.651,494.935h1.537c1.605,0,2.622-0.88,2.622-2.209c0-1.502-1.087-2.157-2.673-2.157
			c-0.726,0-1.226,0.069-1.485,0.139V494.935z"/>
	</g>
</g>
</svg>
